<svg xmlns="http://www.w3.org/2000/svg" fill="none" viewBox="0 0 112 74">
    <rect width="16" height="26" x="2" y="24" stroke="#4F4F4F" stroke-width="4" rx="4"/>
    <rect width="16" height="26" x="28" y="24" stroke="#4F4F4F" stroke-width="4" rx="4"/>
    <path stroke="#4F4F4F" stroke-width="4" d="M107.721 32.745L78.591 3.782c-2.522-2.51-6.82-.722-6.82 2.836V20a4 4 0 01-4 4H58a4 4 0 00-4 4v18a4 4 0 004 4h9.771a4 4 0 014 4v13.382c0 3.558 4.298 5.345 6.82 2.836l29.13-28.963a6 6 0 000-8.51z"/>
</svg>