<svg xmlns="http://www.w3.org/2000/svg" fill="none" viewBox="0 0 194 195">
    <circle cx="97" cy="97" r="96" fill="#E6E4DA" stroke="#000" stroke-width="2"/>
    <path fill="#fff" stroke="#000" stroke-width="2" d="M81.823 76.369C79.7 84.29 70.888 88.968 62.003 86.587c-8.886-2.38-14.179-10.837-12.056-18.76 2.123-7.922 10.935-12.599 19.82-10.218 8.886 2.381 14.178 10.837 12.056 18.76zM138.844 41.696c1.69 5.136-1.647 11.07-7.798 13.094-6.15 2.024-12.359-.768-14.049-5.904-1.691-5.136 1.646-11.07 7.797-13.094 6.151-2.024 12.36.768 14.05 5.904zM94.014 124.966c1.285 3.904-1.246 8.466-5.997 10.03-4.751 1.564-9.497-.604-10.782-4.508-1.284-3.904 1.247-8.466 5.998-10.029 4.75-1.564 9.496.603 10.781 4.507zM35.042 97.777c1.285 3.904-1.246 8.466-5.997 10.029-4.751 1.564-9.497-.603-10.782-4.507-1.285-3.904 1.246-8.466 5.997-10.03 4.752-1.564 9.497.604 10.782 4.508zM104.028 171.22c1.112 3.378-1.075 7.355-5.229 8.722-4.154 1.367-8.275-.534-9.387-3.912s1.075-7.355 5.23-8.722c4.153-1.367 8.274.533 9.386 3.912zM157.142 146.533c-5.144 5.145-14.855 4.282-21.726-2.589-6.872-6.871-7.734-16.582-2.59-21.727 5.145-5.145 14.856-4.282 21.727 2.589s7.734 16.582 2.589 21.727z"/>
    <path stroke="#000" stroke-width="2" d="M33.864 50.577c.886-4.594 5.442-14.899 16.578-19.369M171.709 53.867l6.554 14.179M47.044 160.418l-12.765-9.003M169.38 62.56l6.553 14.18M44.715 151.725l-12.765-9.003M164.86 71.701l6.553 14.18"/>
</svg>