<svg xmlns="http://www.w3.org/2000/svg" fill="none" viewBox="0 0 30 30">
    <path fill="#fff" fill-rule="evenodd" d="M0 14.053l8.056 3.277c.219-.144.453-.269.702-.37a4.115 4.115 0 011.758-.31l3.673-5.333v-.074a5.71 5.71 0 015.7-5.707 5.71 5.71 0 015.701 5.707c0 3.147-2.556 5.709-5.7 5.709-.043 0-.087-.001-.13-.003l-5.255 3.754a4.165 4.165 0 01-5.763 3.955 4.156 4.156 0 01-2.459-2.94l-5.63-2.23C2.561 25.58 8.25 30 14.971 30c8.284 0 15-6.716 15-15 0-8.284-6.716-15-15-15C7.005 0 .489 6.21 0 14.053zm9.107 9.727a3.214 3.214 0 002.471-5.934 3.194 3.194 0 00-2.368-.037l1.919.795a2.366 2.366 0 01-1.819 4.369l-1.856-.77a3.192 3.192 0 001.653 1.577zm6.984-12.537a3.805 3.805 0 003.798 3.803c2.095 0 3.8-1.706 3.8-3.803a3.806 3.806 0 00-3.8-3.802 3.805 3.805 0 00-3.798 3.802zm3.805-2.863a2.856 2.856 0 00-2.853 2.857 2.855 2.855 0 002.853 2.857 2.855 2.855 0 002.853-2.857 2.856 2.856 0 00-2.853-2.857z" clip-rule="evenodd"/>
</svg>