<svg xmlns="http://www.w3.org/2000/svg" fill="none" viewBox="0 0 30 30">
    <path fill="#fff" fill-rule="evenodd" d="M0 15C0 6.716 6.716 0 15 0c8.284 0 15 6.716 15 15 0 8.284-6.716 15-15 15-8.284 0-15-6.716-15-15zm23.989-4.51a2.35 2.35 0 00-1.653-1.652C20.87 8.436 15 8.436 15 8.436s-5.869 0-7.336.386A2.397 2.397 0 006.01 10.49C5.625 11.957 5.625 15 5.625 15s0 3.058.386 4.51a2.35 2.35 0 001.653 1.652c1.482.402 7.336.402 7.336.402s5.869 0 7.336-.386a2.35 2.35 0 001.653-1.653c.386-1.467.386-4.51.386-4.51s.015-3.058-.386-4.525zM18.012 15l-4.88 2.81V12.19L18.011 15z" clip-rule="evenodd"/>
</svg>